<svg xmlns="http://www.w3.org/2000/svg" width="1280" height="640" viewBox="0 0 1280 640">
  <rect width="1280" height="640" fill="#000000"/>
  
  <!-- Grid lines -->
  <line x1="0" y1="160" x2="1280" y2="160" stroke="#111" stroke-width="1"/>
  <line x1="0" y1="320" x2="1280" y2="320" stroke="#111" stroke-width="1"/>
  <line x1="0" y1="480" x2="1280" y2="480" stroke="#111" stroke-width="1"/>
  <line x1="213" y1="0" x2="213" y2="640" stroke="#111" stroke-width="1"/>
  <line x1="426" y1="0" x2="426" y2="640" stroke="#111" stroke-width="1"/>
  <line x1="640" y1="0" x2="640" y2="640" stroke="#111" stroke-width="1"/>
  <line x1="853" y1="0" x2="853" y2="640" stroke="#111" stroke-width="1"/>
  <line x1="1066" y1="0" x2="1066" y2="640" stroke="#111" stroke-width="1"/>

  <!-- Top border -->
  <rect width="1280" height="3" fill="#ffffff"/>
  <!-- Bottom border -->
  <rect y="637" width="1280" height="3" fill="#ffffff"/>

  <!-- Main title -->
  <text x="640" y="230" font-family="monospace" font-size="96" font-weight="700" fill="#ffffff" text-anchor="middle" letter-spacing="24">CLAUDE STUDIO</text>

  <!-- Divider -->
  <rect x="160" y="270" width="960" height="2" fill="#333333"/>

  <!-- Subtitle -->
  <text x="640" y="340" font-family="monospace" font-size="28" fill="#888888" text-anchor="middle" letter-spacing="4">THE UNIFIED CLAUDE AI DEVELOPMENT STACK</text>

  <!-- Module tags -->
  <rect x="100" y="390" width="180" height="44" rx="2" fill="#111" stroke="#333" stroke-width="1"/>
  <text x="190" y="418" font-family="monospace" font-size="16" fill="#ffffff" text-anchor="middle">SUPERPOWERS</text>

  <rect x="300" y="390" width="220" height="44" rx="2" fill="#111" stroke="#333" stroke-width="1"/>
  <text x="410" y="418" font-family="monospace" font-size="16" fill="#ffffff" text-anchor="middle">EVERYTHING-CC</text>

  <rect x="540" y="390" width="200" height="44" rx="2" fill="#111" stroke="#333" stroke-width="1"/>
  <text x="640" y="418" font-family="monospace" font-size="16" fill="#ffffff" text-anchor="middle">UI UX PRO MAX</text>

  <rect x="760" y="390" width="160" height="44" rx="2" fill="#111" stroke="#333" stroke-width="1"/>
  <text x="840" y="418" font-family="monospace" font-size="16" fill="#ffffff" text-anchor="middle">BROWSER-USE</text>

  <rect x="940" y="390" width="160" height="44" rx="2" fill="#111" stroke="#333" stroke-width="1"/>
  <text x="1020" y="418" font-family="monospace" font-size="16" fill="#ffffff" text-anchor="middle">CLAUDE-MEM</text>

  <rect x="1120" y="390" width="130" height="44" rx="2" fill="#111" stroke="#333" stroke-width="1"/>
  <text x="1185" y="418" font-family="monospace" font-size="16" fill="#ffffff" text-anchor="middle">N8N-MCP</text>

  <!-- Bottom tag -->
  <text x="640" y="560" font-family="monospace" font-size="20" fill="#444444" text-anchor="middle" letter-spacing="6">SIX TOOLS · ONE REPO · ZERO COMPROMISE</text>

  <!-- Author -->
  <text x="640" y="610" font-family="monospace" font-size="16" fill="#333333" text-anchor="middle">github.com/er4700345-coder/claude-studio</text>
</svg>
